<svg id="svg-sprite" xmlns="http://www.w3.org/2000/svg" xml:space="preserve" aria-hidden="true">
  <defs>
    <symbol id="accessibility-icon" viewBox="0 0 50 50">
      <g transform="matrix(.75988 0 0 .75988 -12.994 -12.994)" stroke-width="1.316"><path d="m82.9 50c0-18.2-14.8-32.9-32.9-32.9s-32.9 14.7-32.9 32.9 14.7 32.9 32.9 32.9 32.9-14.7 32.9-32.9zm-32.9-25.7c3.1 0 5.6 2.5 5.6 5.6s-2.5 5.6-5.6 5.6-5.6-2.5-5.6-5.6c0-3 2.5-5.6 5.6-5.6zm-8.2 50.6c-0.4 0-0.8-0.1-1.2-0.3-1.5-0.7-2.1-2.4-1.4-3.9 0 0 5.5-12.6 6.5-17.2 0.4-1.6 0.6-5.9 0.7-7.9 0-0.7-0.4-1.3-1-1.5l-12.3-3.7c-1.6-0.5-2.5-2.2-2-3.7s2.2-2.2 3.7-1.8c0 0 11.3 3.6 15.3 3.6s15.5-3.7 15.5-3.7c1.5-0.4 3.2 0.5 3.6 2s-0.5 3.2-2 3.6l-12.3 3.7c-0.6 0.2-1.1 0.8-1 1.5 0.1 2 0.3 6.3 0.7 7.9 1 4.6 6.5 17.2 6.5 17.2 0.7 1.5 0 3.2-1.4 3.9-0.4 0.2-0.8 0.3-1.2 0.3-1.1 0-2.2-0.6-2.6-1.7l-5.9-12-5.6 12.1c-0.5 1-1.5 1.6-2.6 1.6z" stroke-width="1.316"/></g>
    </symbol>
    <symbol id="responsive-icon" viewBox="0 0 50 50">
      <path d="m45.556 0h-41.111c-2.4444 0-4.4444 2-4.4444 4.4444v41.111c0 2.4444 2 4.4444 4.4444 4.4444h41.111c2.4444 0 4.4444-2 4.4444-4.4444v-41.111c0-2.4444-2-4.4444-4.4444-4.4444zm-41.111 2.2222h41.111c1.2222 0 2.2222 1 2.2222 2.2222v4.4444h-45.556v-4.4444c0-1.2222 1-2.2222 2.2222-2.2222zm41.111 45.556h-41.111c-1.2222 0-2.2222-1-2.2222-2.2222v-34.444h45.556v34.444c0 1.2222-1 2.2222-2.2222 2.2222zm-40.778-41.444c-0.22222-0.22222-0.33333-0.5-0.33333-0.77778s0.11111-0.55556 0.33333-0.77778c0.38889-0.44444 1.1667-0.44444 1.5556 0 0.22222 0.22222 0.33333 0.5 0.33333 0.77778s-0.11111 0.55556-0.33333 0.77778-0.5 0.33333-0.77778 0.33333-0.55556-0.11111-0.77778-0.33333zm4.4444 0c-0.22222-0.22222-0.33333-0.5-0.33333-0.77778v-0.22222c0-0.055556 0.055555-0.11111 0.055555-0.22222 5e-7 -0.055556 0.055556-0.11111 0.11111-0.16667 0.055556-0.055556 0.055556-0.11111 0.11111-0.16667 0.055556-0.055556 0.11111-0.11111 0.16667-0.11111 0.055556-0.055556 0.11111-0.055556 0.22222-0.11111 0.055556-0.055556 0.11111-0.055556 0.22222-0.055556 0.33333-0.055556 0.72222 0.055556 1 0.27778 0.22222 0.22222 0.33333 0.5 0.33333 0.77778v0.22222c0 0.055556-0.05556 0.11111-0.05556 0.22222 0 0.055556-0.05556 0.11111-0.11111 0.16667-0.05556 0.055556-0.05556 0.11111-0.11111 0.16667-0.05556 0.055556-0.11111 0.11111-0.16667 0.11111-0.05556 0.055556-0.11111 0.055556-0.16667 0.11111-0.05556 0.055556-0.11111 0.055556-0.22222 0.055556h-0.44444c-0.055556 0-0.11111-0.055556-0.22222-0.055556-0.055556 0-0.11111-0.055555-0.22222-0.11111-0.055556 0-0.11111-0.055556-0.16667-0.11111zm4.4444 0c-0.22222-0.22222-0.33333-0.5-0.33333-0.77778s0.11111-0.55556 0.33333-0.77778c0.38889-0.44444 1.1667-0.44444 1.5556 0 0.22222 0.22222 0.33333 0.5 0.33333 0.77778s-0.11111 0.55556-0.33333 0.77778-0.5 0.33333-0.77778 0.33333-0.55556-0.11111-0.77778-0.33333zm29.667 8.1111h-11.111c-0.61111 0-1.1111 0.5-1.1111 1.1111v27.778c0 0.61111 0.5 1.1111 1.1111 1.1111h11.111c0.61111 0 1.1111-0.5 1.1111-1.1111v-27.778c0-0.61111-0.5-1.1111-1.1111-1.1111zm-1.1111 27.778h-8.8889v-25.556h8.8889zm-15.556-5.5556h-20c-0.61111 0-1.1111 0.5-1.1111 1.1111v5.5556c0 0.61111 0.5 1.1111 1.1111 1.1111h20c0.61111 0 1.1111-0.5 1.1111-1.1111v-5.5556c0-0.61111-0.5-1.1111-1.1111-1.1111zm-1.1111 5.5556h-17.778v-3.3333h17.778zm1.1111-27.778h-20c-0.61111 0-1.1111 0.5-1.1111 1.1111v16.667c0 0.61111 0.5 1.1111 1.1111 1.1111h20c0.61111 0 1.1111-0.5 1.1111-1.1111v-16.667c0-0.61111-0.5-1.1111-1.1111-1.1111zm-1.1111 16.667h-17.778v-14.444h17.778z"/>
    </symbol>
    <symbol id="seo-icon" viewBox="0 0 50 50">
      <g transform="matrix(.80645 0 0 .80645 -.80645 -.80645)"><path d="m32 1c-17.094 0-31 13.907-31 31s13.906 31 31 31 31-13.907 31-31-13.906-31-31-31zm7.473 33.062c-0.016 0.158-0.041 0.316-0.065 0.473-0.018 0.119-0.035 0.239-0.057 0.356-0.04 0.208-0.089 0.416-0.144 0.623-0.015 0.056-0.029 0.112-0.045 0.167-0.066 0.23-0.14 0.46-0.224 0.688-1.376 3.719-5.074 6.394-9.422 6.394-1.912 0-3.695-0.526-5.216-1.422l-5.467 5.348c0.193 0.24 0.304 0.531 0.308 0.842 5e-3 0.379-0.143 0.735-0.414 1.003l-3.155 3.108c-0.278 0.274-0.648 0.411-1.017 0.411-0.358 0-0.716-0.129-0.991-0.387l-1.177-1.102c-0.28-0.261-0.436-0.614-0.44-0.993-5e-3 -0.379 0.143-0.735 0.414-1.003l3.155-3.107c0.526-0.517 1.373-0.543 1.936-0.08l5.288-5.173c-1.978-1.752-3.226-4.25-3.226-7.028 0-4.591 3.388-8.434 7.894-9.365 0.085-0.018 0.171-0.032 0.256-0.047 0.219-0.039 0.44-0.072 0.663-0.097 0.09-0.01 0.18-0.022 0.271-0.03 0.303-0.027 0.608-0.045 0.919-0.045 2.055 0 3.966 0.598 5.557 1.62 0.033 0.021 0.065 0.044 0.099 0.066 0.218 0.144 0.429 0.295 0.634 0.454 0.045 0.035 0.09 0.07 0.134 0.106 0.193 0.156 0.38 0.319 0.56 0.488 0.04 0.038 0.082 0.073 0.121 0.111 0.207 0.201 0.406 0.409 0.594 0.626 0.063 0.073 0.119 0.151 0.18 0.226 0.108 0.133 0.215 0.267 0.316 0.405 0.105 0.145 0.205 0.295 0.302 0.447 0.044 0.068 0.087 0.135 0.129 0.204 0.106 0.174 0.208 0.352 0.304 0.534 0.681 1.294 1.074 2.75 1.074 4.296-1e-3 0.299-0.02 0.592-0.048 0.883zm-4.323-10.215c0.022-1.058 0.471-2.06 1.272-2.829 0.827-0.795 1.915-1.232 3.063-1.232 1.146 0 2.233 0.437 3.06 1.229 0.823 0.813 1.275 1.846 1.275 2.91 0 1.087-0.452 2.12-1.272 2.908-0.851 0.818-1.982 1.261-3.161 1.231-0.079-0.14-0.17-0.272-0.254-0.408-0.068-0.109-0.134-0.219-0.206-0.325-0.083-0.124-0.169-0.245-0.257-0.365-0.123-0.169-0.252-0.333-0.385-0.495-0.054-0.065-0.104-0.133-0.16-0.196-0.21-0.244-0.431-0.477-0.662-0.701-0.024-0.023-0.048-0.045-0.072-0.067-0.225-0.214-0.459-0.419-0.702-0.614-0.026-0.021-0.051-0.042-0.077-0.062-0.458-0.362-0.944-0.694-1.462-0.984zm16.464 21.928h-1.206c-0.201 0-0.377 0.135-0.429 0.329-0.032 0.119-0.055 0.166-0.074 0.203l-0.042 0.095c-0.021 0.054-0.036 0.087-0.056 0.118-0.117 0.179-0.09 0.415 0.063 0.563l0.837 0.803-1.502 1.444-0.864-0.829c-0.144-0.137-0.364-0.163-0.534-0.06-0.057 0.034-0.126 0.06-0.184 0.081l-0.102 0.033c-0.076 0.022-0.153 0.046-0.23 0.079-0.162 0.07-0.267 0.23-0.267 0.407v1.142h-2.163v-1.142c0-0.206-0.14-0.383-0.34-0.431-0.088-0.021-0.155-0.044-0.219-0.074l-0.092-0.036c-0.062-0.023-0.099-0.038-0.133-0.059-0.169-0.101-0.39-0.077-0.534 0.061l-0.863 0.828-1.504-1.443 0.819-0.807c0.15-0.148 0.175-0.382 0.061-0.558-0.015-0.021-0.042-0.068-0.09-0.194l-0.026-0.076c-0.023-0.073-0.049-0.147-0.083-0.221-0.072-0.154-0.23-0.255-0.402-0.255h-1.185v-2.042h1.207c0.201 0 0.377-0.136 0.429-0.33 0.03-0.114 0.054-0.164 0.075-0.206l0.04-0.092c0.019-0.047 0.033-0.084 0.057-0.12 0.116-0.177 0.088-0.414-0.064-0.561l-0.837-0.803 1.502-1.443 0.863 0.829c0.136 0.132 0.363 0.157 0.54 0.057 0.027-0.015 0.057-0.027 0.087-0.039 0.057-0.022 0.089-0.037 0.098-0.041l0.145-0.066 8e-3 0.017c0.056-0.017 0.112-0.037 0.169-0.061 0.165-0.07 0.271-0.23 0.271-0.408v-1.142h2.152v1.142c0 0.206 0.14 0.383 0.34 0.431 0.122 0.029 0.176 0.054 0.217 0.073l0.094 0.038c0.061 0.023 0.097 0.038 0.131 0.058 0.171 0.103 0.392 0.078 0.537-0.06l0.862-0.828 1.491 1.443-0.837 0.804c-0.143 0.138-0.17 0.382-0.061 0.566 0.014 0.023 0.026 0.05 0.037 0.077 0.021 0.05 0.034 0.08 0.04 0.092l-0.14 0.076 0.152-0.051 0.023 0.069c0.025 0.074 0.049 0.149 0.083 0.225 0.073 0.156 0.231 0.256 0.403 0.256h1.228v2.039zm0.44-19.454c0 0.198-0.201 0.208-0.242 0.208h-2.705c-0.276 0-0.516 0.186-0.586 0.452-0.064 0.246-0.124 0.386-0.176 0.487l-0.085 0.192c-0.047 0.111-0.091 0.22-0.155 0.319-0.159 0.243-0.122 0.565 0.088 0.767l1.946 1.867c0.036 0.032 0.044 0.073 0.045 0.102 1e-3 0.03-7e-3 0.088-0.061 0.14l-3.45 3.314c-0.066 0.069-0.226 0.078-0.322-0.016l-1.929-1.853c-0.199-0.19-0.498-0.223-0.731-0.082-0.158 0.095-0.401 0.183-0.504 0.22-0.064 0.023-0.132 0.043-0.201 0.064-0.144 0.043-0.293 0.089-0.443 0.152-0.223 0.095-0.367 0.314-0.367 0.557v2.598c0 0.198-0.201 0.208-0.242 0.208h-1.605c0.022-0.078 0.038-0.157 0.059-0.235 0.06-0.232 0.115-0.466 0.159-0.704 0.04-0.212 0.075-0.425 0.102-0.638 0.013-0.105 0.024-0.21 0.034-0.316 0.029-0.315 0.05-0.63 0.05-0.945 0-1.386-0.283-2.707-0.779-3.926 1.288-0.106 2.494-0.644 3.436-1.548 1.06-1.019 1.644-2.361 1.644-3.781 0-1.391-0.581-2.732-1.638-3.774-1e-3 -2e-3 -3e-3 -4e-3 -5e-3 -6e-3 -1.054-1.012-2.44-1.57-3.901-1.57s-2.847 0.557-3.901 1.57c-0.899 0.864-1.451 1.961-1.6 3.14-1.37-0.576-2.88-0.899-4.468-0.899-0.415 0-0.824 0.026-1.227 0.068-0.129 0.014-0.257 0.039-0.385 0.057-0.274 0.038-0.546 0.08-0.813 0.137-0.05 0.011-0.101 0.014-0.151 0.025v-1.03c0-0.154 0.13-0.208 0.242-0.208h2.705c0.276 0 0.517-0.187 0.586-0.454 0.048-0.188 0.106-0.352 0.174-0.484l0.088-0.199c0.047-0.109 0.09-0.217 0.154-0.315 0.158-0.243 0.121-0.565-0.088-0.766l-1.946-1.868c-0.036-0.032-0.044-0.073-0.045-0.102-1e-3 -0.03 7e-3 -0.087 0.061-0.14l3.45-3.315c0.067-0.069 0.226-0.077 0.322 0.016l1.929 1.853c0.197 0.189 0.495 0.223 0.73 0.083 0.087-0.052 0.188-0.089 0.285-0.127s0.192-0.076 0.22-0.094c0.064-0.023 0.131-0.043 0.2-0.063 0.144-0.043 0.294-0.089 0.446-0.153 0.223-0.095 0.367-0.314 0.367-0.557v-2.598c0-0.154 0.13-0.208 0.242-0.208h4.846c0.149 0 0.242 0.08 0.242 0.208v2.598c0 0.28 0.192 0.523 0.464 0.588 0.202 0.049 0.377 0.106 0.515 0.171l0.203 0.083c0.116 0.046 0.232 0.089 0.336 0.152 0.234 0.14 0.533 0.106 0.73-0.083l1.944-1.868c0.066-0.069 0.225-0.078 0.321 0.014l3.429 3.316c0.036 0.032 0.044 0.073 0.045 0.102 1e-3 0.03-7e-3 0.087-0.061 0.14l-1.929 1.852c-0.209 0.202-0.246 0.524-0.087 0.768 0.053 0.081 0.09 0.175 0.128 0.266 0.041 0.095 0.081 0.187 0.097 0.21 0.023 0.06 0.043 0.124 0.064 0.189 0.046 0.141 0.094 0.287 0.162 0.433 0.099 0.214 0.313 0.352 0.549 0.352h2.705c0.158 0 0.256 0.128 0.289 0.265v4.622z"/><path d="m47.858 42.851c-0.521-0.498-1.221-0.747-1.92-0.747-0.702 0-1.404 0.25-1.926 0.75-0.524 0.504-0.813 1.169-0.813 1.873s0.289 1.37 0.814 1.874c0.521 0.499 1.204 0.774 1.925 0.774s1.404-0.275 1.925-0.774c0.524-0.504 0.814-1.17 0.814-1.874 0-0.69-0.287-1.354-0.81-1.869zm-0.723 2.994c-0.647 0.622-1.748 0.622-2.397 0-0.317-0.304-0.492-0.701-0.492-1.117s0.174-0.813 0.491-1.117c0.325-0.311 0.751-0.483 1.199-0.483s0.872 0.17 1.195 0.48c0.319 0.316 0.495 0.713 0.495 1.12 2e-3 0.415-0.173 0.812-0.491 1.117z"/></g>
    </symbol>
  </defs>
</svg>